<?xml version="1.0" encoding="UTF-8"?>
<svg xmlns="http://www.w3.org/2000/svg" width="512" height="512" viewBox="0 0 128 128"><g><path d="M78.745,27.777h-9.8L65.66,17.916a1.75,1.75,0,0,0-3.32,0l-3.287,9.861h-9.8a1.75,1.75,0,0,0-1.237,2.988l6.607,6.608L51.281,47.406a1.75,1.75,0,0,0,2.631,2.009L64,42.69l10.088,6.725a1.75,1.75,0,0,0,2.631-2.009L73.374,37.373l6.608-6.608a1.75,1.75,0,0,0-1.237-2.988Zm-8.61,7.886a1.747,1.747,0,0,0-.423,1.79l2.073,6.22L64.971,39.13a1.75,1.75,0,0,0-1.942,0l-6.814,4.543,2.073-6.22a1.747,1.747,0,0,0-.423-1.79L53.48,31.277h6.834a1.75,1.75,0,0,0,1.66-1.2L64,24l2.026,6.079a1.752,1.752,0,0,0,1.66,1.2H74.52Z"/><path d="M118.2,12.177c-4.918-3.408-12.453-3.3-18.651-.113L100.8,6.7a1.749,1.749,0,0,0-1.7-2.146H28.905A1.749,1.749,0,0,0,27.2,6.7l1.245,5.361c-6.2-3.189-13.733-3.3-18.65.113C4.563,15.8,3.188,22.567,6.023,30.735c6.328,18.227,27.383,26.839,36.7,29.827a27.424,27.424,0,0,0,11.155,8.062v6.825a1.75,1.75,0,0,0,1.75,1.75h1.887a29.142,29.142,0,0,1-3.7,12.752H47a1.75,1.75,0,0,0-1.75,1.75v8.5H38.826a1.751,1.751,0,0,0-1.677,1.25l-5.894,19.742a1.75,1.75,0,0,0,1.677,2.25H95.068a1.749,1.749,0,0,0,1.677-2.25l-5.894-19.742a1.751,1.751,0,0,0-1.677-1.25H82.753V91.7A1.749,1.749,0,0,0,81,89.951H74.178a29.132,29.132,0,0,1-3.7-12.752h1.887a1.749,1.749,0,0,0,1.75-1.75V68.624a27.438,27.438,0,0,0,11.155-8.061c9.319-2.989,30.375-11.6,36.7-29.828C124.811,22.567,123.436,15.8,118.2,12.177ZM96.648,24.565c4.75-3.193,10.7-4.314,13.237-2.419,2.1,1.563,1.448,5.028.535,7.659-3.206,9.235-12.37,14.956-19.186,18.058Zm-59.882,23.3C29.95,44.76,20.785,39.04,17.58,29.805c-.914-2.631-1.562-6.1.535-7.659,2.539-1.9,8.486-.774,13.237,2.419ZM9.33,29.588c-2.315-6.67-1.441-11.831,2.46-14.535,4.634-3.211,12.339-2.369,17.784,1.862l.7,3.013c-4.9-2.37-10.7-3.237-14.252-.588-2.094,1.562-4.1,4.845-1.749,11.613,4.073,11.733,16.281,18.254,23.7,21.236a27.948,27.948,0,0,0,1.513,3.528C29.679,51.961,14.323,43.972,9.33,29.588Zm83.39,90.355H35.281L40.13,103.7H87.87ZM79.253,100.2H48.747v-6.75H79.253Zm-9.048-10.25H57.794A33.092,33.092,0,0,0,61.022,77.2h5.956A33.076,33.076,0,0,0,70.205,89.951ZM70.619,73.7H57.381V69.737a27.614,27.614,0,0,0,13.238,0ZM64,67.042a24.04,24.04,0,0,1-18.84-9.028c-.03-.04-.062-.077-.095-.114a24.2,24.2,0,0,1-4.592-9.545l-9.365-40.3H96.892l-9.365,40.3A24.2,24.2,0,0,1,82.935,57.9c-.033.038-.066.075-.1.116A24.04,24.04,0,0,1,64,67.042Zm54.67-37.454c-4.993,14.384-20.35,22.373-30.16,26.129a27.8,27.8,0,0,0,1.513-3.528c7.423-2.982,19.631-9.5,23.7-21.236,2.349-6.768.345-10.051-1.75-11.613-3.55-2.649-9.346-1.782-14.252.588l.7-3.012c5.446-4.232,13.15-5.074,17.786-1.862C120.111,17.757,120.985,22.918,118.67,29.588Z"/></g></svg>
